<?xml version="1.0" ?><svg viewBox="0 0 129.88 129.88" xmlns="http://www.w3.org/2000/svg" xmlns:xlink="http://www.w3.org/1999/xlink"><defs><style>.cls-1{fill:url(#linear-gradient);}.cls-2{fill:#fff;}.cls-3{fill:url(#linear-gradient-2);}.cls-4,.cls-5{fill:none;stroke:#fff;stroke-linejoin:round;stroke-width:4.6px;}.cls-5{stroke-linecap:round;}</style><linearGradient gradientUnits="userSpaceOnUse" id="linear-gradient" x1="21.02" x2="108.82" y1="89.65" y2="38.96"><stop offset="0.02" stop-color="red"/><stop offset="1" stop-color="#9e005d"/></linearGradient><linearGradient id="linear-gradient-2" x1="33.55" x2="96.29" xlink:href="#linear-gradient" y1="69.93" y2="69.93"/></defs><title/><g data-name="Layer 1" id="Layer_1"><path class="cls-1" d="M86.31,13.61H43.53a13.63,13.63,0,0,0-11.81,6.82L10.33,57.48a13.62,13.62,0,0,0,0,13.64l21.39,37.05A13.63,13.63,0,0,0,43.53,115H86.31a13.65,13.65,0,0,0,11.82-6.82l21.39-37a13.67,13.67,0,0,0,0-13.64l-21.39-37A13.65,13.65,0,0,0,86.31,13.61Z"/><path class="cls-2" d="M70.41,36.42a5.25,5.25,0,0,1,5.25,5.25v11a5.25,5.25,0,0,1-5.25,5.25h-11a5.25,5.25,0,0,1-5.24-5.25v-11a5.25,5.25,0,0,1,5.24-5.25h11m0-4.15h-11A9.41,9.41,0,0,0,50,41.67v11A9.41,9.41,0,0,0,59.43,62h11a9.41,9.41,0,0,0,9.39-9.4v-11a9.41,9.41,0,0,0-9.39-9.4Z"/><rect class="cls-3" height="48.67" rx="8.82" width="62.74" x="33.55" y="45.59"/><path class="cls-2" d="M87.48,47.67a6.74,6.74,0,0,1,6.74,6.74v31a6.75,6.75,0,0,1-6.74,6.75H42.37a6.75,6.75,0,0,1-6.75-6.75v-31a6.75,6.75,0,0,1,6.75-6.74H87.48m0-4.15H42.37A10.9,10.9,0,0,0,31.48,54.41v31A10.9,10.9,0,0,0,42.37,96.33H87.48A10.9,10.9,0,0,0,98.37,85.44v-31A10.91,10.91,0,0,0,87.48,43.52Z"/><path class="cls-4" d="M91.7,47.63l-7.41,26a9.09,9.09,0,0,1-7.84,4.85H54a9.11,9.11,0,0,1-7.84-4.85L37.62,47.12"/><line class="cls-5" x1="61.06" x2="68.27" y1="68.75" y2="68.75"/><line class="cls-5" x1="69.94" x2="78.29" y1="54.58" y2="54.58"/></g></svg>